<svg data-v-0dd9719b="" version="1.0" xmlns="http://www.w3.org/2000/svg" xmlns:xlink="http://www.w3.org/1999/xlink" width="100%" height="100%" viewBox="0 0 340.000000 250.000000" preserveAspectRatio="xMidYMid meet" color-interpolation-filters="sRGB" style="margin: auto;"> <rect data-v-0dd9719b="" x="0" y="0" width="100%" height="100%" fill="#fff" fill-opacity="1" class="background"></rect> <rect data-v-0dd9719b="" x="0" y="0" width="100%" height="100%" fill="url(#watermark)" fill-opacity="1" class="watermarklayer"></rect> <g data-v-0dd9719b="" fill="#333" class="icon-text-wrapper icon-svg-group iconsvg" transform="translate(47.49000549316406,95.88375091552734)"><g class="iconsvg-imagesvg" transform="translate(0,3.1354751586914062)"><g><rect fill="#333" fill-opacity="0" stroke-width="2" x="0" y="0" width="60" height="51.96154845414393" class="image-rect"></rect> <svg x="0" y="0" width="60" height="51.96154845414393" filtersec="colorsb5590994454" class="image-svg-svg primary" style="overflow: visible;"><svg xmlns="http://www.w3.org/2000/svg" viewBox="0 0 115.4699935913086 100"><g fill-rule="evenodd"><path d="M88.47 31.82a5.89 5.89 0 0 0 .45-2.27 6 6 0 1 0-6.37 5.94L98.83 63.7l-21 36.3h8.77l20.62-35.71zM28 43.46a6 6 0 0 0 5.31-8.66L49.05 7.56H91L86.6 0H45.37L27.12 31.61A6 6 0 0 0 28 43.46zM62.76 76.19a6 6 0 0 0-4.88 2.55H25.32l-21-36.3L0 50l20.62 35.71H58a6 6 0 1 0 4.77-9.52z" fill="#00a2e9"></path><path d="M94.85 14.29h-37a6 6 0 1 0 0 7h32.3l21 36.3 4.32-7.59zM87.18 56.23a6 6 0 0 0-5.08 9.06L66.42 92.44H24.5l4.37 7.56H70.1l18.49-32a6 6 0 0 0-1.41-11.75zM25.66 69.75a6 6 0 1 0 6.89-5.88L16.64 36.3 37.6 0h-8.73L8.25 35.71 26.32 67a6 6 0 0 0-.66 2.75z" fill="#096594"></path></g></svg></svg> <!----></g></g> <g transform="translate(67,0)"><g data-gra="path-name" fill-rule="" class="tp-name iconsvg-namesvg" transform="translate(0,0)"><g transform="scale(1)"><g><path d="M42.58-23.95L42.58-23.95 24.96-23.95Q26.24-17.09 30.81-11.58 35.38-6.06 43.81-2.77L43.81-2.77 43.77-2.2Q38.8-1.27 38.01 4.26L38.01 4.26Q26.41-3.52 24.26-23.86L24.26-23.86Q23.29-15.07 19.42-9.23L19.42-9.23Q25.93-7.73 27.51-4.04L27.51-4.04Q28.52-1.63 26.94 0.35L26.94 0.35Q25.44 2.2 23.03 1.67L23.03 1.67Q21.67 1.41 20.43 0.31L20.43 0.31Q20.43-3.87 18.5-7.82L18.5-7.82Q13.01-0.53 1.49 4.09L1.49 4.09 1.1 3.52Q5.41 0.53 8.44-2.77 11.47-6.06 13.25-9.6 15.03-13.14 15.93-16.52 16.83-19.91 17.23-23.95L17.23-23.95 1.58-23.95 1.23-25.18 17.31-25.18Q17.58-28.78 17.58-38.23L17.58-38.23 26.54-37.44Q26.32-36.34 24.87-36.12L24.87-36.12Q24.7-28.74 24.39-25.18L24.39-25.18 33.49-25.18 37.22-29.93Q41.4-26.76 43.9-24.65L43.9-24.65Q43.73-23.95 42.58-23.95ZM76.03-9.27L76.03-9.27 76.33-9.54Q84.38-8.66 86.97-4.75L86.97-4.75Q88.55-2.37 87.5-0.22L87.5-0.22Q86.53 1.63 84.42 1.49L84.42 1.49Q83.32 1.45 82.18 0.75L82.18 0.75Q80.55-4.35 76.03-9.27ZM77.26-21.23L77.26-26.32 65.48-26.32 65.48-21.23 77.26-21.23ZM65.48-20L65.48-14.5 77.26-14.5 77.26-20 65.48-20ZM57.44-34.8L78.93-34.8 82.27-39.02Q86.04-36.17 88.33-34.23L88.33-34.23Q88.15-33.53 87.01-33.53L87.01-33.53 70.84-33.53 75.98-32.48Q75.76-31.55 74.36-31.51L74.36-31.51Q74.05-31.2 73.32-30.32 72.6-29.44 72-28.81 71.41-28.17 70.8-27.6L70.8-27.6 76.82-27.6 79.63-30.67 85.47-26.28Q84.95-25.58 83.67-25.27L83.67-25.27 83.67-13.18Q83.63-12.96 82.79-12.57 81.96-12.17 80.68-11.82 79.41-11.47 78.4-11.47L78.4-11.47 77.26-11.47 77.26-13.23 74.62-13.23 74.62-2.72Q74.62 0.66 73.15 2.29 71.67 3.91 67.06 4.22L67.06 4.22Q66.97 1.14 66.18 0.04L66.18 0.04Q65.08-1.45 62.62-1.85L62.62-1.85 62.62-2.37Q66.53-2.15 67.41-2.15L67.41-2.15Q68.2-2.15 68.2-2.9L68.2-2.9 68.2-13.23 65.48-13.23 65.48-12.26Q65.48-11.91 64.45-11.36 63.41-10.81 62.09-10.5L62.09-10.5 68.07-7.43Q67.68-6.64 66.36-6.81L66.36-6.81Q63.98-3.87 60.38-1.34 56.78 1.19 52.51 2.55L52.51 2.55 52.21 2.11Q54.93-0.22 57.19-3.63 59.46-7.03 60.69-10.28L60.69-10.28Q60.47-10.24 60.07-10.24L60.07-10.24 59.19-10.24 59.19-30.1 65.79-27.6 67.81-27.6Q68.03-30.5 67.94-33.53L67.94-33.53 56.47-33.53 56.47-23.99Q56.47-20.79 56.36-18.46 56.25-16.13 55.7-12.66 55.15-9.18 54.14-6.53 53.13-3.87 51.17-0.94 49.22 1.98 46.45 4.13L46.45 4.13 46.05 3.87Q47.86 0 48.85-5.3 49.83-10.59 50.01-14.46 50.19-18.33 50.19-23.99L50.19-23.99 50.19-37.75 57.44-34.8ZM106.57-10.68L106.57-10.68 106.7-10.24Q101.87-5.71 94.79-0.53L94.79-0.53Q94.53 0.48 93.56 0.83L93.56 0.83 90.66-6.2Q91.32-6.33 95.63-7.47L95.63-7.47 95.63-19.34 91.8-19.34 91.45-20.61 95.63-20.61 95.63-31.95 91.41-31.95 91.05-33.22 99.76-33.22 102.61-37.4Q105.42-34.89 107.23-33.05L107.23-33.05Q112.37-33.97 117.86-35.49 123.35-37 126.61-38.41L126.61-38.41 132.01-32.78Q131.13-32.12 128.89-32.96L128.89-32.96Q118.83-31.73 107.18-32.12L107.18-32.12Q106.88-31.95 106.35-31.95L106.35-31.95 101.78-31.95 101.78-22.28 103.1-24.43Q105.69-21.8 107.05-20.08L107.05-20.08Q106.83-19.34 105.86-19.34L105.86-19.34 101.78-19.34 101.78-9.23Q102.26-9.36 106.57-10.68ZM121.42-21.09L121.42-21.09 120.89-21.4Q123.22-25.93 124.85-32.26L124.85-32.26 132.32-29.31Q131.92-28.34 130.47-28.48L130.47-28.48Q126.61-23.82 121.42-21.09ZM112.94-30.89L112.94-30.89 113.33-31.16Q119.09-29.88 120.23-26.81L120.23-26.81Q120.94-24.87 119.53-23.47L119.53-23.47Q118.08-22.06 116.15-22.9L116.15-22.9Q115.49-23.16 114.87-23.73L114.87-23.73Q115-27.47 112.94-30.89ZM105.51-30.06L105.51-30.06 105.86-30.28Q111.71-29.18 113.03-26.15L113.03-26.15Q113.82-24.21 112.46-22.76L112.46-22.76Q111.09-21.27 109.07-22.06L109.07-22.06Q108.46-22.32 107.84-22.85L107.84-22.85Q107.8-26.54 105.51-30.06ZM133.02-12.3L122.04-12.3 122.04 0 125.42 0 125.42-9.01 133.42-8.31Q133.29-7.34 131.79-7.08L131.79-7.08 131.79 2.68Q131.79 2.86 131 3.14 130.21 3.43 128.94 3.67 127.66 3.91 126.47 3.91L126.47 3.91 125.42 3.91 125.42 1.27 112.28 1.27 112.28 2.77Q112.28 2.94 111.49 3.27 110.7 3.6 109.47 3.87 108.24 4.13 107.23 4.13L107.23 4.13 106.08 4.13 106.08-9.01 113.33-8.35Q113.25-7.69 112.28-7.51L112.28-7.51 112.28 0 115.75 0 115.75-12.3 105.64-12.3 105.29-13.54 115.75-13.54 115.75-19.12 107.4-19.12 107.05-20.39 124.85-20.39 127.79-24.48Q131.18-21.71 133.11-19.86L133.11-19.86Q132.98-19.12 131.84-19.12L131.84-19.12 122.04-19.12 122.04-13.54 125.38-13.54 128.63-18.02Q132.23-14.99 134.34-13.01L134.34-13.01Q134.17-12.3 133.02-12.3L133.02-12.3ZM138.82 0.83L166.29 0.83 169.98-3.74Q174.11-0.66 176.62 1.41L176.62 1.41Q176.44 2.11 175.25 2.11L175.25 2.11 139.17 2.11 138.82 0.83ZM171.3-29.31L171.3-29.31 178.37-24.35Q178.02-23.64 176.62-23.86L176.62-23.86Q170.29-19.95 165.23-17.67L165.23-17.67Q169.85-12.66 179.12-10.5L179.12-10.5 178.99-10.02Q177.1-9.49 175.83-7.84 174.55-6.2 174.02-3.82L174.02-3.82Q168.4-7.03 165.19-11.87 161.98-16.7 160.4-25.4L160.4-25.4 160.4-7.29Q160.4-5.58 160.11-4.5 159.83-3.43 159.02-2.48 158.2-1.54 156.58-1.03 154.95-0.53 152.36-0.31L152.36-0.31Q152.05-3.47 151.13-4.53L151.13-4.53Q149.81-6.06 146.6-6.59L146.6-6.59 146.6-7.16Q152.05-6.86 153.11-6.86L153.11-6.86Q154.07-6.86 154.07-7.6L154.07-7.6 154.07-22.63Q153.76-22.37 152.62-22.24L152.62-22.24Q148.62-9.14 136.32-3.56L136.32-3.56 135.97-4Q139.88-7.43 142.4-12.44 144.93-17.45 146.07-23.07L146.07-23.07 137.29-23.07 136.89-24.35 145.81-24.35 148.89-27.55 154.07-23.2 154.07-28.96 158.38-28.56Q160.66-30.85 162.6-33.71L162.6-33.71 142.16-33.71 141.77-34.98 162.91-34.98 166.29-38.28 172.09-33.44Q171.56-32.87 170.24-32.74L170.24-32.74Q165.72-30.28 160.22-28.39L160.22-28.39 161.85-28.26Q161.76-27.73 161.48-27.47 161.19-27.2 160.4-27.07L160.4-27.07Q161.59-22.28 164.36-18.76L164.36-18.76Q168.53-24.17 171.3-29.31Z" transform="translate(-1.100000023841858, 39.02000045776367)"></path></g> <!----> <!----> <!----> <!----> <!----> <!----> <!----></g></g> <g data-gra="path-slogan" fill-rule="" class="tp-slogan iconsvg-slogansvg" fill="#333" transform="translate(5,49.279998779296875)"><rect x="0" height="1" y="3.9750003814697266" width="19.789997100830078"></rect> <rect height="1" y="3.9750003814697266" width="19.789997100830078" x="148.2299919128418"></rect> <g transform="translate(22.789997100830078,0)"><g transform="scale(1)"><path d="M3.09-7.59L0.19-7.59L0.19-8.58L7.13-8.58L7.13-7.59L4.22-7.59L4.22 0L3.09 0L3.09-7.59ZM13.83 0L12.98-2.48L9.52-2.48L8.63 0L7.45 0L10.69-8.58L12-8.58L15.09 0L13.83 0ZM11.25-7.31L9.89-3.52L12.56-3.52L11.30-7.31L11.25-7.31ZM16.31-8.58L17.48-8.58L17.48 0L16.31 0L16.31-8.58ZM26.39-8.58L23.16-3.47L23.16 0L21.98 0L21.98-3.47L18.75-8.58L20.11-8.58L22.55-4.45L25.03-8.58L26.39-8.58ZM33.09-3.19L33.09-8.58L34.27-8.58L34.27-3.05Q34.13 0.05 30.75 0.14L30.75 0.14Q27.61 0.05 27.47-2.86L27.47-2.86L27.47-8.58L28.64-8.58L28.64-3.19Q28.69-0.84 30.80-0.80L30.80-0.80Q33.09-0.84 33.09-3.19L33.09-3.19ZM41.72 0L40.88-2.48L37.41-2.48L36.52 0L35.34 0L38.58-8.58L39.89-8.58L42.98 0L41.72 0ZM39.14-7.31L37.78-3.52L40.45-3.52L39.19-7.31L39.14-7.31ZM45.42-8.58L49.73-1.64L49.73-8.58L50.86-8.58L50.86 0L49.55 0L45.19-6.94L45.14-6.94L45.14 0L44.02 0L44.02-8.58L45.42-8.58ZM62.91-8.58L59.67-3.47L59.67 0L58.50 0L58.50-3.47L55.27-8.58L56.63-8.58L59.06-4.45L61.55-8.58L62.91-8.58ZM69.61 0L68.77-2.48L65.30-2.48L64.41 0L63.23 0L66.47-8.58L67.78-8.58L70.88 0L69.61 0ZM67.03-7.31L65.67-3.52L68.34-3.52L67.08-7.31L67.03-7.31ZM78.70-4.27L78.70-4.27Q78.52-7.64 75.70-7.83L75.70-7.83Q72.84-7.69 72.70-4.27L72.70-4.27Q72.84-0.94 75.70-0.80L75.70-0.80Q78.52-0.98 78.70-4.27ZM79.88-4.27L79.88-4.27Q79.59 0 75.70 0.14L75.70 0.14Q71.77 0 71.48-4.27L71.48-4.27Q71.72-8.72 75.70-8.81L75.70-8.81Q79.59-8.67 79.88-4.27ZM88.41-6.05L88.41-6.05L87.28-6.05Q86.86-7.78 84.89-7.83L84.89-7.83Q82.17-7.69 82.08-4.36L82.08-4.36Q82.08-0.80 84.94-0.80L84.94-0.80Q86.91-0.84 87.38-3.19L87.38-3.19L88.50-3.19Q87.98 0.05 84.70 0.14L84.70 0.14Q80.95 0 80.86-4.31L80.86-4.31Q81.05-8.63 84.89-8.81L84.89-8.81Q87.94-8.72 88.41-6.05ZM91.03-5.06L95.53-5.06L95.53-8.58L96.70-8.58L96.70 0L95.53 0L95.53-3.98L91.03-3.98L91.03 0L89.86 0L89.86-8.58L91.03-8.58L91.03-5.06ZM99.80-1.03L104.95-1.03L104.95 0L98.63 0L98.63-8.58L104.86-8.58L104.86-7.59L99.80-7.59L99.80-4.92L104.48-4.92L104.48-3.89L99.80-3.89L99.80-1.03ZM107.86-8.58L112.17-1.64L112.17-8.58L113.30-8.58L113.30 0L111.98 0L107.63-6.94L107.58-6.94L107.58 0L106.45 0L106.45-8.58L107.86-8.58ZM121.50-3.61L118.88-3.61L118.88-4.59L122.63-4.59L122.63 0L121.88 0L121.59-1.08Q120.61 0.09 118.78 0.14L118.78 0.14Q117.05 0.14 116.11-0.75L116.11-0.75Q114.70-2.06 114.75-4.36L114.75-4.36Q115.08-8.63 118.83-8.81L118.83-8.81Q122.02-8.63 122.48-6L122.48-6L121.36-6Q120.89-7.78 118.78-7.83L118.78-7.83Q116.11-7.64 115.97-4.31L115.97-4.31Q115.97-0.75 118.83-0.75L118.83-0.75Q119.86-0.75 120.61-1.31L120.61-1.31Q121.55-2.06 121.50-3.61L121.50-3.61Z" transform="translate(-0.1875, 8.8125)"></path></g></g></g></g></g><defs v-gra="od"></defs></svg>